<?xml version="1.0" encoding="utf-8"?>
<!-- Generator: Adobe Illustrator 16.0.0, SVG Export Plug-In . SVG Version: 6.00 Build 0)  -->
<!DOCTYPE svg PUBLIC "-//W3C//DTD SVG 1.1//EN" "http://www.w3.org/Graphics/SVG/1.1/DTD/svg11.dtd">
<svg version="1.1" id="Layer_1" xmlns="http://www.w3.org/2000/svg" xmlns:xlink="http://www.w3.org/1999/xlink" x="0px" y="0px"
	 width="202px" height="57px" viewBox="0 0 202 57" style="enable-background:new 0 0 202 57;" xml:space="preserve">
<style type="text/css">
<![CDATA[
	.st0{clip-path:url(#SVGID_2_);fill:#119DD9;}
	.st1{fill:#353838;}
	.st2{clip-path:url(#SVGID_2_);fill:#353838;}
]]>
</style>
<path class="st1" d="M10.4,55.3l-0.9-2.1H5.3l-0.9,2.1H2l4.3-9.9h2.1l4.3,9.9H10.4z M7.4,48.3l-1.3,2.9h2.5L7.4,48.3z"/>
<g>
	<defs>
		<rect id="SVGID_1_" x="-17.4" y="-97.7" width="249.1" height="249.1"/>
	</defs>
	<clipPath id="SVGID_2_">
		<use xlink:href="#SVGID_1_"  style="overflow:visible;"/>
	</clipPath>
	<path class="st2" d="M20.3,50.2h2.2v3.5c-1,1.1-2.4,1.6-4.1,1.6c-1.5,0-2.7-0.5-3.7-1.4c-1-1-1.5-2.2-1.5-3.7s0.5-2.7,1.5-3.7
		c1-1,2.2-1.5,3.7-1.5c1.4,0,2.7,0.5,3.7,1.4L21,48.2c-0.4-0.4-0.9-0.7-1.2-0.8c-0.4-0.1-0.8-0.2-1.2-0.2c-0.8,0-1.6,0.3-2.1,0.9
		c-0.6,0.6-0.9,1.3-0.9,2.3c0,0.9,0.3,1.7,0.8,2.3c0.6,0.6,1.2,0.8,2,0.8c0.8,0,1.4-0.1,1.9-0.4V50.2z"/>
	<rect x="24.5" y="45.3" class="st2" width="2.2" height="9.9"/>
	<polygon class="st2" points="29.2,55.3 29.2,45.3 31.4,45.3 31.4,53.3 35.6,53.3 35.6,55.3 	"/>
	<polygon class="st2" points="44.4,45.3 44.4,47.3 39.5,47.3 39.5,49.3 43.9,49.3 43.9,51.2 39.5,51.2 39.5,53.3 44.6,53.3 
		44.6,55.3 37.3,55.3 37.3,45.3 	"/>
	<polygon class="st2" points="54,51.6 56.5,45.3 58.9,45.3 54.9,55.3 53,55.3 49,45.3 51.4,45.3 	"/>
	<rect x="60.1" y="45.3" class="st2" width="2.2" height="9.9"/>
	<path class="st2" d="M67.1,47.3c-0.2,0.2-0.3,0.4-0.3,0.7s0.1,0.5,0.4,0.7c0.3,0.2,0.9,0.4,1.8,0.6c0.9,0.2,1.7,0.6,2.2,1
		s0.8,1.1,0.8,2c0,0.9-0.3,1.6-1,2.2s-1.5,0.8-2.6,0.8c-1.6,0-3-0.6-4.2-1.7l1.3-1.6c1.1,0.9,2.1,1.4,3,1.4c0.4,0,0.7-0.1,1-0.3
		c0.2-0.2,0.3-0.4,0.3-0.7s-0.1-0.5-0.4-0.7c-0.2-0.2-0.7-0.4-1.5-0.5c-1.2-0.3-2-0.6-2.5-1.1c-0.5-0.4-0.8-1.1-0.8-2.1
		s0.3-1.7,1-2.2c0.7-0.5,1.5-0.8,2.5-0.8c0.7,0,1.3,0.1,2,0.3c0.7,0.2,1.2,0.5,1.7,1L70.6,48c-0.9-0.7-1.8-1-2.7-1
		C67.6,47,67.3,47.1,67.1,47.3"/>
	<rect x="73.8" y="45.3" class="st2" width="2.2" height="9.9"/>
	<path class="st2" d="M86.8,53.9c-1,1-2.2,1.5-3.7,1.5c-1.5,0-2.7-0.5-3.7-1.5c-1-1-1.5-2.2-1.5-3.7s0.5-2.7,1.5-3.7
		c1-1,2.2-1.5,3.7-1.5c1.5,0,2.7,0.5,3.7,1.5c1,1,1.5,2.2,1.5,3.7S87.8,52.9,86.8,53.9 M86.1,50.2c0-0.9-0.3-1.6-0.9-2.3
		C84.7,47.3,84,47,83.1,47S81.6,47.3,81,48c-0.6,0.6-0.9,1.4-0.9,2.3c0,0.9,0.3,1.6,0.9,2.3c0.6,0.6,1.3,0.9,2.1,0.9
		s1.5-0.3,2.1-0.9C85.8,51.9,86.1,51.1,86.1,50.2"/>
	<polygon class="st2" points="97.2,45.3 99.4,45.3 99.4,55.3 97.2,55.3 92.4,49 92.4,55.3 90.2,55.3 90.2,45.3 92.3,45.3 97.2,51.7 
			"/>
	<path class="st2" d="M113.2,46.6c0.9,0.9,1.4,2.1,1.4,3.6s-0.5,2.8-1.4,3.7c-0.9,0.9-2.3,1.3-4.2,1.3h-3.4v-9.9h3.5
		C110.9,45.3,112.2,45.8,113.2,46.6 M111.5,52.5c0.5-0.5,0.8-1.3,0.8-2.2c0-1-0.3-1.7-0.8-2.3c-0.5-0.5-1.4-0.8-2.5-0.8h-1.2v6h1.4
		C110.2,53.3,111,53,111.5,52.5"/>
	<polygon class="st2" points="123.7,45.3 123.7,47.3 118.7,47.3 118.7,49.3 123.2,49.3 123.2,51.2 118.7,51.2 118.7,53.3 
		123.8,53.3 123.8,55.3 116.5,55.3 116.5,45.3 	"/>
	<polygon class="st2" points="129.5,51.6 132,45.3 134.4,45.3 130.4,55.3 128.5,55.3 124.5,45.3 126.9,45.3 	"/>
	<polygon class="st2" points="142.7,45.3 142.7,47.3 137.8,47.3 137.8,49.3 142.2,49.3 142.2,51.2 137.8,51.2 137.8,53.3 
		142.9,53.3 142.9,55.3 135.6,55.3 135.6,45.3 	"/>
	<polygon class="st2" points="144.9,55.3 144.9,45.3 147.1,45.3 147.1,53.3 151.3,53.3 151.3,55.3 	"/>
	<path class="st2" d="M161,53.9c-1,1-2.2,1.5-3.7,1.5s-2.7-0.5-3.7-1.5c-1-1-1.5-2.2-1.5-3.7s0.5-2.7,1.5-3.7c1-1,2.2-1.5,3.7-1.5
		s2.7,0.5,3.7,1.5c1,1,1.5,2.2,1.5,3.7S162,52.9,161,53.9 M160.3,50.2c0-0.9-0.3-1.6-0.9-2.3c-0.6-0.6-1.3-0.9-2.1-0.9
		c-0.8,0-1.5,0.3-2.1,0.9c-0.6,0.6-0.9,1.4-0.9,2.3c0,0.9,0.3,1.6,0.9,2.3c0.6,0.6,1.3,0.9,2.1,0.9c0.8,0,1.5-0.3,2.1-0.9
		C160,51.9,160.3,51.1,160.3,50.2"/>
	<path class="st2" d="M171.2,46.2c0.7,0.6,1,1.5,1,2.7c0,1.2-0.4,2.1-1.1,2.7c-0.7,0.6-1.8,0.9-3.3,0.9h-1.3v2.8h-2.2v-9.9h3.5
		C169.4,45.3,170.5,45.6,171.2,46.2 M169.6,50.1c0.3-0.3,0.4-0.7,0.4-1.3s-0.2-1-0.5-1.2c-0.3-0.2-0.9-0.4-1.6-0.4h-1.3v3.3h1.5
		C168.8,50.6,169.4,50.4,169.6,50.1"/>
	<polygon class="st2" points="181.2,45.3 181.2,47.3 176.2,47.3 176.2,49.3 180.7,49.3 180.7,51.2 176.2,51.2 176.2,53.3 
		181.3,53.3 181.3,55.3 174,55.3 174,45.3 	"/>
	<path class="st2" d="M191.4,48.6c0,1.6-0.6,2.6-1.9,3.1l2.5,3.6h-2.7l-2.2-3.2h-1.5v3.2h-2.2v-9.9h3.8c1.5,0,2.6,0.3,3.3,0.8
		C191,46.6,191.4,47.5,191.4,48.6 M188.7,49.8c0.3-0.2,0.4-0.6,0.4-1.2c0-0.5-0.1-0.9-0.4-1.1c-0.3-0.2-0.8-0.3-1.5-0.3h-1.7v2.9
		h1.6C187.9,50.2,188.4,50,188.7,49.8"/>
	<path class="st2" d="M196,47.3c-0.2,0.2-0.3,0.4-0.3,0.7s0.1,0.5,0.4,0.7s0.9,0.4,1.8,0.6c0.9,0.2,1.7,0.6,2.2,1
		c0.5,0.5,0.8,1.1,0.8,2c0,0.9-0.3,1.6-1,2.2c-0.7,0.6-1.5,0.8-2.6,0.8c-1.6,0-3-0.6-4.2-1.7l1.3-1.6c1.1,0.9,2.1,1.4,3,1.4
		c0.4,0,0.7-0.1,1-0.3c0.2-0.2,0.3-0.4,0.3-0.7s-0.1-0.5-0.4-0.7c-0.2-0.2-0.7-0.4-1.5-0.5c-1.2-0.3-2-0.6-2.5-1.1
		c-0.5-0.4-0.8-1.1-0.8-2.1s0.3-1.7,1-2.2c0.7-0.5,1.5-0.8,2.5-0.8c0.7,0,1.3,0.1,2,0.3c0.7,0.2,1.2,0.5,1.7,1l-1.1,1.6
		c-0.9-0.7-1.8-1-2.7-1C196.5,47,196.2,47.1,196,47.3"/>
	<polygon class="st0" points="1.5,30.3 1.6,30.4 1.6,30.3 	"/>
	<polygon class="st0" points="22.6,1.7 14.9,1.7 2.3,30.1 2.4,30.1 2.4,30.2 7.3,36.4 8.1,36.4 8.1,36.4 20.5,36.4 17.8,30.1 
		10.8,30.1 10.8,30.1 10.8,30.1 11.3,28.9 11.3,28.9 14.3,22.1 14.3,22.1 18.7,12 23.2,22.1 23.1,22.1 26.2,28.9 26.2,28.9 
		26.9,30.6 29.5,36.4 37.9,36.4 	"/>
	<polygon class="st2" points="46.6,23.8 55.6,1.7 64.2,1.7 50,36.4 43.3,36.4 29,1.7 37.6,1.7 	"/>
	<path class="st2" d="M102,6.2c3.4,3,5.1,7.2,5.1,12.6c0,5.4-1.7,9.7-5,12.8c-3.3,3.2-8.3,4.7-15.1,4.7H74.8V1.7h12.5
		C93.7,1.7,98.6,3.2,102,6.2 M96.1,26.9c1.9-1.8,2.9-4.4,2.9-7.8c0-3.4-1-6-2.9-7.9c-1.9-1.8-4.9-2.8-9-2.8h-4.4v21.1h5
		C91.4,29.6,94.2,28.7,96.1,26.9"/>
	<polygon class="st2" points="136.5,1.7 136.5,8.6 118.9,8.6 118.9,15.7 134.8,15.7 134.8,22.3 118.9,22.3 118.9,29.6 137.1,29.6 
		137.1,36.4 111,36.4 111,1.7 	"/>
	<polygon class="st2" points="156.7,23.8 165.8,1.7 174.4,1.7 160.1,36.4 153.4,36.4 139.1,1.7 147.7,1.7 	"/>
	<path class="st2" d="M183.7,8.6c-0.8,0.6-1.1,1.4-1.1,2.4c0,1,0.5,1.8,1.4,2.4c0.9,0.6,3.1,1.3,6.4,2.1c3.4,0.8,6,2,7.8,3.7
		c1.9,1.6,2.8,4,2.8,7.1c0,3.1-1.2,5.6-3.6,7.6c-2.4,1.9-5.5,2.9-9.4,2.9c-5.6,0-10.7-2-15.2-6.1l4.7-5.7c3.8,3.3,7.4,4.9,10.6,4.9
		c1.5,0,2.6-0.3,3.4-0.9c0.8-0.6,1.2-1.4,1.2-2.5c0-1-0.4-1.9-1.3-2.5c-0.9-0.6-2.6-1.2-5.2-1.9c-4.1-1-7.2-2.2-9.1-3.8
		c-1.9-1.5-2.9-4-2.9-7.3c0-3.3,1.2-5.8,3.6-7.6c2.4-1.8,5.4-2.7,9.1-2.7c2.4,0,4.7,0.4,7.1,1.2c2.4,0.8,4.4,1.9,6.2,3.4l-4,5.7
		c-3.1-2.3-6.3-3.4-9.5-3.4C185.5,7.7,184.4,8,183.7,8.6"/>
</g>
</svg>
